<svg width="9" height="14" viewBox="0 0 9 14" fill="none" xmlns="http://www.w3.org/2000/svg">
<path fill-rule="evenodd" clip-rule="evenodd" d="M1.27372 0.711216C1.3608 0.62391 1.46426 0.554642 1.57815 0.50738C1.69205 0.460118 1.81415 0.435791 1.93747 0.435791C2.06078 0.435791 2.18288 0.460118 2.29678 0.50738C2.41068 0.554642 2.51413 0.62391 2.60122 0.711216L8.22622 6.33622C8.31352 6.4233 8.38279 6.52676 8.43005 6.64065C8.47731 6.75455 8.50164 6.87665 8.50164 6.99997C8.50164 7.12328 8.47731 7.24538 8.43005 7.35928C8.38279 7.47318 8.31352 7.57663 8.22622 7.66372L2.60122 13.2887C2.42518 13.4648 2.18642 13.5636 1.93747 13.5636C1.68851 13.5636 1.44975 13.4648 1.27372 13.2887C1.09768 13.1127 0.998782 12.8739 0.998782 12.625C0.998782 12.376 1.09768 12.1373 1.27372 11.9612L6.23684 6.99997L1.27372 2.03872C1.18641 1.95163 1.11714 1.84818 1.06988 1.73428C1.02262 1.62038 0.998291 1.49828 0.998291 1.37497C0.998291 1.25165 1.02262 1.12955 1.06988 1.01565C1.11714 0.901756 1.18641 0.798302 1.27372 0.711216Z" fill="#8643DC"/>
</svg>
